<svg width="41" height="41" viewBox="0 0 41 41" fill="none" xmlns="http://www.w3.org/2000/svg">
<rect x="0.8659" y="0.869806" width="39.5172" height="39.2682" rx="19.6341" stroke="#C4C4C4" stroke-opacity="0.3" stroke-width="0.7318"/>
<path fill-rule="evenodd" clip-rule="evenodd" d="M16.0413 11.3374C16.5476 11.3374 16.958 11.7478 16.958 12.2541V13.1707H24.2913V12.2541C24.2913 11.7478 24.7017 11.3374 25.208 11.3374C25.7143 11.3374 26.1247 11.7478 26.1247 12.2541V13.1707H27.0413C28.5601 13.1707 29.7913 14.402 29.7913 15.9207V26.9207C29.7913 28.4395 28.5601 29.6707 27.0413 29.6707H14.208C12.6892 29.6707 11.458 28.4395 11.458 26.9207V15.9207C11.458 14.402 12.6892 13.1707 14.208 13.1707H15.1247V12.2541C15.1247 11.7478 15.5351 11.3374 16.0413 11.3374ZM24.2913 15.0041V15.9207C24.2913 16.427 24.7017 16.8374 25.208 16.8374C25.7143 16.8374 26.1247 16.427 26.1247 15.9207V15.0041H27.0413C27.5476 15.0041 27.958 15.4145 27.958 15.9207V18.6707H13.2913V15.9207C13.2913 15.4145 13.7017 15.0041 14.208 15.0041H15.1247V15.9207C15.1247 16.427 15.5351 16.8374 16.0413 16.8374C16.5476 16.8374 16.958 16.427 16.958 15.9207V15.0041H24.2913ZM13.2913 20.5041V26.9207C13.2913 27.427 13.7017 27.8374 14.208 27.8374H27.0413C27.5476 27.8374 27.958 27.427 27.958 26.9207V20.5041H13.2913Z" fill="#6F767E"/>
</svg>
