<svg width="50" height="50" viewBox="0 0 50 50" fill="none" xmlns="http://www.w3.org/2000/svg">
<path d="M25.9424 28.0469L25.957 27.9785C26.2402 26.8115 26.5967 25.3564 26.3184 24.0381C26.1328 22.998 25.3662 22.5928 24.7119 22.5635C23.9404 22.5293 23.252 22.9688 23.0811 23.6084C22.7588 24.7803 23.0469 26.3818 23.5742 28.4228C22.9102 30.0049 21.8506 32.3047 21.0742 33.6719C19.6289 34.4189 17.6904 35.5713 17.4023 37.0264C17.3438 37.2949 17.4121 37.6367 17.5732 37.9443C17.7539 38.2861 18.042 38.5498 18.3789 38.6768C18.5254 38.7305 18.7012 38.7744 18.9063 38.7744C19.7656 38.7744 21.1572 38.0811 23.0127 34.8975C23.2959 34.8047 23.5889 34.707 23.8721 34.6094C25.2002 34.1602 26.5771 33.6914 27.8223 33.4814C29.1992 34.2188 30.7666 34.6924 31.8311 34.6924C32.8857 34.6924 33.3008 34.0674 33.457 33.6914C33.7305 33.0322 33.5986 32.2022 33.1543 31.7578C32.5098 31.123 30.9424 30.957 28.501 31.2598C27.2998 30.5273 26.5137 29.5313 25.9424 28.0469ZM20.5859 35.4639C19.9072 36.4502 19.3945 36.9434 19.1162 37.1582C19.4434 36.5576 20.083 35.9229 20.5859 35.4639ZM24.8633 23.9648C25.1172 24.3994 25.083 25.7129 24.8877 26.377C24.6484 25.4053 24.6143 24.0283 24.7559 23.8672C24.7949 23.8721 24.8291 23.9014 24.8633 23.9648ZM24.7852 29.8486C25.3076 30.752 25.9668 31.5283 26.6943 32.1045C25.6396 32.3438 24.6777 32.7393 23.8184 33.0908C23.6133 33.1738 23.4131 33.2568 23.2178 33.335C23.8672 32.1582 24.4092 30.8252 24.7852 29.8486ZM32.3828 33.0469C32.3877 33.0566 32.3926 33.0713 32.3633 33.0908H32.3535L32.3438 33.1055C32.3047 33.1299 31.9043 33.3643 30.1807 32.6855C32.1631 32.5928 32.3779 33.042 32.3828 33.0469ZM41.7285 14.0918L31.2207 3.58398C30.9277 3.29102 30.5322 3.125 30.1172 3.125H9.375C8.51074 3.125 7.8125 3.82324 7.8125 4.6875V45.3125C7.8125 46.1768 8.51074 46.875 9.375 46.875H40.625C41.4893 46.875 42.1875 46.1768 42.1875 45.3125V15.2002C42.1875 14.7852 42.0215 14.3848 41.7285 14.0918ZM38.584 15.918H29.3945V6.72852L38.584 15.918ZM38.6719 43.3594H11.3281V6.64062H26.0742V17.1875C26.0742 17.7314 26.2903 18.253 26.6749 18.6376C27.0595 19.0222 27.5811 19.2383 28.125 19.2383H38.6719V43.3594Z" fill="#EF5350"/>
</svg>
