<svg width="281" height="217" viewBox="0 0 281 217" fill="none" xmlns="http://www.w3.org/2000/svg">
<path d="M160.528 94.9185L158.621 92.1675H155.272C154.895 92.1675 154.673 91.7238 154.895 91.4354L156.913 88.7732L155.871 85.6007C155.76 85.2457 156.093 84.8908 156.47 85.0239L159.619 86.1331L162.325 84.1587C162.635 83.9368 163.057 84.1587 163.057 84.5358L162.968 87.8858L165.674 89.8381C165.985 90.0599 165.896 90.548 165.541 90.6589L162.347 91.6129L161.327 94.7853C161.216 95.1625 160.75 95.2512 160.528 94.9185Z" fill="#F47458"/>
<path d="M248.689 34.3754L250.441 30.2934L248.09 26.5219C247.824 26.1004 248.157 25.5458 248.667 25.5901L253.08 26.0117L255.919 22.5951C256.252 22.1958 256.873 22.3511 256.984 22.8614L257.96 27.1875L262.085 28.8514C262.551 29.051 262.595 29.6944 262.174 29.9384L258.359 32.2013L258.048 36.6383C258.004 37.1486 257.405 37.3926 257.028 37.0599L253.701 34.1314L249.399 35.2185C248.889 35.3294 248.489 34.8413 248.689 34.3754Z" fill="#F7CC7F"/>
<path d="M18.6487 146.477L16.3865 142.151L11.5514 141.552C10.997 141.485 10.7752 140.82 11.1522 140.42L14.5678 136.937L13.6363 132.145C13.5254 131.591 14.102 131.169 14.59 131.413L18.9592 133.587L23.2176 131.213C23.7056 130.947 24.2822 131.347 24.2157 131.901L23.5059 136.738L27.0768 140.065C27.476 140.442 27.2764 141.13 26.7219 141.219L21.9091 142.04L19.8464 146.455C19.6246 146.965 18.9149 146.987 18.6487 146.477Z" fill="#9BC1F9"/>
<path d="M276.879 42.584L276.945 44.9356L273.153 45.4459L272.798 48.9067L270.025 49.772L270.447 51.1696L274.173 50.0382L274.483 46.7548L278.431 46.2223L278.343 42.6727L276.879 42.584Z" fill="#466EB6"/>
<path d="M66.932 18.3799C67.1316 16.8269 68.6176 15.6955 70.1701 15.9173C71.7892 16.1392 72.7207 17.4481 72.5655 19.0898C72.388 20.7315 71.146 21.8407 69.4382 21.6411C67.7083 21.4414 66.7102 20.0437 66.932 18.3799ZM68.4623 14.1425L69.2164 1.69663C69.283 0.676116 70.1923 -0.100364 71.2125 0.0105619L72.4546 0.143673C73.4748 0.254598 74.2067 1.20856 74.0293 2.22908L72.0332 14.5418L68.4623 14.1425Z" fill="#F48C7F"/>
<path d="M59.0361 81.0518C59.1248 84.1355 59.9232 90.7689 66.9096 91.856C71.2567 92.5437 76.8237 88.6391 76.4688 85.7551C76.1139 82.8932 75.3155 75.5721 70.7688 73.9082C66.9983 72.5327 58.8586 74.1522 59.0361 81.0518Z" fill="#184655"/>
<path d="M117.456 180.885C118.454 185.034 119.23 191.046 119.519 191.379C119.652 191.534 119.94 192.577 120.095 192.755C124.62 194.396 128.59 192.71 131.739 190.824C129.277 190.381 125.951 189.937 125.485 189.604C123.777 188.384 124.176 184.08 123.866 180.198C122.624 180.42 119.674 179.643 117.456 180.885Z" fill="#F7A491"/>
<path d="M119.43 191.135C119.452 192.777 120.516 196.282 120.849 196.282C121.248 196.282 134.822 195.106 136.108 193.021C136.885 191.756 134.778 191.446 131.739 190.847C128.59 192.71 119.807 192.178 119.43 191.135Z" fill="#466EB6"/>
<path d="M52.9377 190.158C49.7883 192.621 46.6167 194.595 46.2175 194.773C46.0179 194.861 44.9311 194.861 44.7315 194.95C41.9369 198.877 42.5136 203.159 43.4673 206.686C44.554 204.423 45.8182 201.273 46.3284 200.985C47.1046 200.541 49.9436 198.855 55.0226 196.792C53.2926 194.928 53.5144 192.621 52.9377 190.158Z" fill="#F7A491"/>
<path d="M60.0785 103.26L50.3641 120.941C50.3641 120.941 43.8656 129.105 40.5166 133.321C41.2263 134.496 41.9361 135.717 42.5571 136.959C45.8839 134.119 52.9591 128.129 55.4875 124.802C59.2135 119.899 65.9782 108.251 65.9782 108.251L60.0785 103.26Z" fill="#F7A491"/>
<path d="M85.9172 134.03L75.5374 149.36C75.5374 149.36 74.9386 148.34 78.6646 149.693C82.3907 151.046 106.366 155.528 107.786 157.236C108.784 158.434 116.236 181.972 117.655 184.99C119.807 185.855 122.956 184.901 125.174 184.568C125.307 173.231 119.319 152.577 117.7 150.159C114.129 144.746 97.0733 138.911 89.3993 135.628C88.1573 135.095 87.1814 134.629 86.5826 134.341C86.1612 134.119 85.9172 134.03 85.9172 134.03Z" fill="#3C8F7C"/>
<path d="M46.0392 194.818C44.4423 194.396 41.2042 194.418 41.1155 194.729C41.0268 195.106 38.5205 208.528 40.1839 210.303C41.182 211.39 42.0692 209.46 43.4664 206.687C42.4906 203.159 44.9524 194.906 46.0392 194.818Z" fill="#466EB6"/>
<path d="M83.1897 144.812C83.2784 143.658 85.7403 136.936 86.6053 134.318C86.6275 134.23 85.9843 132.721 85.2967 130.547L84.2987 130.702L69.5274 131.368C69.5274 131.368 63.5834 141.418 64.271 146.032C65.2468 152.488 74.5621 175.383 73.1426 176.47C70.592 178.422 58.0608 185.677 51.6289 190.003C52.0503 192.488 53.2036 195.971 54.7783 197.968C60.0126 196.148 82.6574 187.008 84.9862 180.02C87.0267 173.83 83.0345 146.764 83.1897 144.812Z" fill="#50BFA5"/>
<path d="M82.945 88.3298C82.945 88.3298 78.8863 94.7191 76.4688 94.9631L84.9411 102.817C84.9411 102.817 90.7299 94.1423 91.3287 92.6559C91.3509 92.6559 86.0945 87.9748 82.945 88.3298Z" fill="#F7CC7F"/>
<path d="M85.9178 126.975C85.5408 130.502 86.6276 134.34 86.6276 134.34C83.212 135.073 71.1244 136.626 68.1746 133.009C68.0637 132.876 72.3664 125.311 71.7676 122.205C70.9026 117.635 67.11 109.915 66.7995 109.493C66.2672 108.805 64.3376 112.399 64.3376 112.399C62.0754 112.422 56.8633 107.141 56.8633 107.141C56.8633 107.141 62.2306 97.7793 63.7166 96.8919C65.2026 96.0045 77.4011 94.6734 77.4233 94.6734C78.3326 94.6068 80.7723 96.7366 81.4599 97.4244C89.156 105.123 87.0933 116.171 85.9178 126.975Z" fill="#FAE0B2"/>
<path d="M70.5254 90.7694C70.5254 90.7694 71.8561 95.162 71.8561 96.959C71.8561 98.756 72.588 101.174 76.3363 100.819C80.0846 100.442 77.0017 96.6706 76.4694 94.9846C75.9371 93.2763 75.2939 87.9297 75.2939 87.9297L70.5254 90.7694Z" fill="#F7A491"/>
<path d="M75.6709 90.5926C75.4713 89.1284 75.3161 87.9082 75.3161 87.9082L70.5254 90.7701C70.5254 90.7701 70.7915 91.6797 71.102 92.8111C73.3421 93.033 74.8503 92.0568 75.6709 90.5926Z" fill="#F47458"/>
<path d="M66.6221 77.4807C66.6221 77.4807 64.6482 78.8562 64.1381 81.4519C63.628 84.0476 65.1805 90.4591 70.7475 91.4574C76.3144 92.4557 78.1331 87.0869 76.6027 83.1823C75.0724 79.2777 72.1226 74.4192 66.6221 77.4807Z" fill="#F7A491"/>
<path d="M75.9706 83.5387C76.6076 83.5354 77.1194 82.6487 77.1137 81.5582C77.1081 80.4678 76.5871 79.5864 75.9502 79.5897C75.3132 79.593 74.8014 80.4797 74.8071 81.5702C74.8127 82.6607 75.3337 83.542 75.9706 83.5387Z" fill="#F7A491"/>
<path d="M66.8152 89.4696C67.4078 88.9752 67.2966 87.865 66.5669 86.99C65.8371 86.1149 64.7652 85.8065 64.1726 86.3009C63.58 86.7954 63.6912 87.9056 64.4209 88.7806C65.1507 89.6556 66.2227 89.9641 66.8152 89.4696Z" fill="#F7A491"/>
<path d="M60.9217 75.0403C61.1435 72.0453 63.2505 60.9306 56.4415 59.8657C49.6325 58.8008 48.1909 66.255 44.3983 56.2273C40.894 46.9539 30.5142 50.5479 30.0706 57.5806C29.0947 57.4919 28.0745 57.6472 27.1208 58.0465C23.7939 59.4442 22.2858 63.4375 23.7718 66.9649C24.0157 67.5196 23.8827 68.0742 24.2153 68.5401C23.4169 71.6016 23.9714 75.1069 26.3445 78.6787C32.8208 88.418 39.2971 78.1684 43.6664 78.723C48.0356 79.2777 45.1967 82.6942 48.9672 85.3564C52.7598 88.0186 55.7983 87.3309 61.9641 80.0542L63.4944 78.0575C63.5166 78.0353 60.6999 78.0353 60.9217 75.0403Z" fill="#184655"/>
<path d="M252.216 159.788C255.631 158.434 258.692 156.571 259.047 156.393C259.335 156.238 260.489 155.395 260.644 155.284C263.66 157.081 264.747 158.59 267.12 160.986C265.368 161.074 264.614 159.632 263.949 159.788C263.128 159.965 260.577 161.673 256.585 164.779C255.898 162.517 253.901 161.385 252.216 159.788Z" fill="#F8A492"/>
<path d="M203.932 194.752C204.708 198.346 206.128 201.541 206.305 201.896C206.394 202.073 206.926 202.206 207.015 202.384C204.753 205.046 203.777 209.483 201.027 211.435C201.226 209.683 202.402 206.421 202.357 205.734C202.313 204.913 201.049 202.095 198.676 197.658C200.96 197.348 202.069 196.15 203.932 194.752Z" fill="#F8A492"/>
<path d="M205.373 202.65C205.684 201.874 206.704 201.341 207.436 201.807C208.168 202.273 209.144 202.783 209.853 203.271C210.674 203.826 210.718 204.469 210.696 204.625C210.63 205.046 201.004 216.316 199.762 216.471C198.52 216.627 200.804 207.109 202.157 206.111C203.377 205.246 203.976 206.133 205.373 202.65Z" fill="#3C8F7C"/>
<path d="M260.356 156.393C259.646 155.949 259.291 154.84 259.89 154.219C260.467 153.575 261.154 152.71 261.775 152.089C262.485 151.379 263.106 151.446 263.261 151.49C263.66 151.623 273.02 163.137 272.976 164.379C272.909 165.622 263.949 161.673 263.217 160.164C262.551 158.811 263.549 158.39 260.356 156.393Z" fill="#3C8F7C"/>
<path d="M207.614 152.711C207.614 152.711 226.622 178.334 229.926 178.578C233.031 178.8 257.007 165.423 257.007 165.423L253.88 158.523L234.673 165.423L221.299 140.109L207.614 152.711Z" fill="#B75742"/>
<path d="M218.57 131.059C218.57 131.059 222.052 131.879 224.049 137.204C226.045 142.506 222.718 146.921 214.378 154.597C206.261 162.073 198.254 169.106 198.254 169.106L204.841 196.216L199.363 200.853C199.363 200.853 186.677 173.299 186.322 166.754C186.189 164.248 205.662 135.207 205.662 135.207L218.57 131.059Z" fill="#F47458"/>
<path d="M203.866 97.8691L193.264 103.815L184.858 107.852C184.858 107.852 182.818 100.886 183.505 97.4698C183.594 96.9817 184.082 96.4049 184.259 96.1387C185.634 94.0533 182.685 90.8364 182.685 90.8364C182.685 90.8364 180.91 90.3262 179.69 93.2768C178.471 96.2274 180.711 97.4698 180.711 97.4698C180.711 97.4698 178.16 106.388 179.225 112.866C179.779 116.261 188.296 113.776 195.061 110.847C200.761 108.385 204.952 105.634 204.952 105.634L203.866 97.8691Z" fill="#F7A491"/>
<path d="M206.239 96.8705C206.017 96.6709 205.64 96.5378 205.041 96.7596C203.733 97.2477 191.002 104.236 191.002 104.236C191.002 104.236 192.133 110.359 195.127 112.223L201.537 110.27L206.439 97.8689C206.594 97.5139 206.527 97.1146 206.239 96.8705Z" fill="#3C8F7C"/>
<path d="M235.538 70.7145C230.703 67.7639 224.692 68.3185 221.099 72.3118C218.15 71.2026 214.756 71.2913 212.028 72.578C206.639 75.1071 201.848 81.6961 205.929 86.4659C205.064 92.8109 208.857 96.5158 213.603 96.9373C216.176 102.106 225.291 102.639 230.548 98.3793C234.873 100.065 240.04 99.3333 243.234 96.2052C244.01 95.4509 245.119 94.2529 245.385 94.142C245.075 94.2973 257.451 92.6556 256.896 81.7405C256.298 70.5592 242.968 66.2996 235.538 70.7145Z" fill="#FE875E"/>
<path d="M213.603 96.0057L221.454 96.4494L220.145 107.431C220.145 107.431 216.353 118.013 217.905 123.094C219.458 128.174 220.944 131.879 220.944 131.879C220.944 131.879 216.464 137.026 203.932 135.961C203.932 135.961 204.088 126.843 203.932 124.07C203.777 121.297 200.561 109.805 201.005 107.209C201.448 104.614 204.199 97.4256 204.931 96.8266C205.64 96.2276 208.501 95.917 208.501 95.917L213.603 96.0057Z" fill="#50BFA5"/>
<path d="M213.958 89.9716C213.958 89.9716 213.825 90.859 213.692 91.9904C213.537 93.4103 213.381 95.2295 213.514 96.2056C213.758 97.9582 212.117 102.573 208.391 102.75C204.665 102.928 208.302 97.6476 208.591 95.9172C208.879 94.1867 208.879 87.8418 208.879 87.8418L213.958 89.9716Z" fill="#F7A491"/>
<path d="M208.9 90.5262C208.9 89.062 208.878 87.8418 208.878 87.8418L213.957 89.9716C213.957 89.9716 213.824 90.8812 213.691 92.057C211.517 92.5894 209.92 91.8573 208.9 90.5262Z" fill="#F47458"/>
<path d="M214.335 76.9268C214.335 76.9268 216.486 77.6811 217.595 79.944C218.704 82.1847 218.926 88.4409 214.069 90.7704C209.234 93.0998 206.217 88.6406 206.639 84.6695C207.082 80.6983 208.546 75.5292 214.335 76.9268Z" fill="#F7A491"/>
<path d="M206.351 81.2184C205.771 81.375 205.519 82.3073 205.787 83.3009C206.055 84.2945 206.742 84.9731 207.322 84.8166C207.901 84.6601 208.154 83.7277 207.885 82.7341C207.617 81.7405 206.93 81.0619 206.351 81.2184Z" fill="#F7A491"/>
<path d="M219.056 84.188C218.386 83.8841 217.478 84.4425 217.028 85.4354C216.577 86.4283 216.754 87.4796 217.423 87.7836C218.092 88.0876 219 87.5291 219.451 86.5362C219.902 85.5433 219.725 84.492 219.056 84.188Z" fill="#F7A491"/>
<path d="M112.222 133.476C111.49 131.324 81.393 43.6259 80.0623 39.7878C78.044 33.931 71.612 30.7807 65.668 32.7551L20.7998 47.7079C14.8558 49.6824 11.6842 56.0495 13.7025 61.9064L45.8621 155.594C47.8804 161.451 54.3124 164.601 60.2563 162.627L105.147 147.674C111.046 145.7 114.24 139.355 112.222 133.476ZM101.31 135.849L55.9536 150.958C52.538 152.089 48.812 150.27 47.6586 146.898L17.9387 60.2425C16.7854 56.8704 18.6041 53.1877 22.0418 52.0562L67.398 36.9481C70.8136 35.8167 74.5397 37.6359 75.693 41.008C82.9012 62.0617 104.748 125.777 105.413 127.663C106.566 131.035 104.725 134.718 101.31 135.849Z" fill="#355389"/>
<path d="M89.688 146.011C90.3756 148.03 87.204 150.914 82.5907 152.445C77.9775 153.976 73.6748 153.598 72.9872 151.58C72.2997 149.561 75.4713 146.677 80.0845 145.146C84.6978 143.593 89.0005 143.992 89.688 146.011Z" fill="#184655"/>
<path d="M88.4687 146.165C89.1118 148.051 86.4947 150.647 82.5912 151.933C78.6877 153.22 75.006 152.754 74.3628 150.846C73.7196 148.961 76.3367 146.365 80.2402 145.078C84.1216 143.791 87.8033 144.279 88.4687 146.165Z" fill="#355389"/>
<path d="M253.724 45.7791L203.289 34.376C196.613 32.8674 190.048 36.8163 188.606 43.1835L165.584 145.035C164.143 151.403 168.379 157.814 175.055 159.3L225.49 170.704C232.166 172.212 238.731 168.263 240.172 161.896L263.194 60.0442C264.636 53.677 260.4 47.2877 253.724 45.7791ZM237.112 152.911C236.291 156.594 232.498 158.857 228.639 157.992L177.672 146.477C173.835 145.612 171.373 141.93 172.216 138.247L193.508 44.0487C194.328 40.366 198.121 38.1031 201.98 38.9683L252.948 50.4824C256.785 51.3476 259.246 55.0303 258.404 58.7131L237.112 152.911Z" fill="#86B1F2"/>
<path d="M201.756 162.53C206.93 163.7 211.524 162.876 212.018 160.689C212.513 158.501 208.719 155.78 203.546 154.61C198.373 153.441 193.778 154.265 193.284 156.452C192.789 158.639 196.583 161.361 201.756 162.53Z" fill="#466EB6"/>
<path d="M202.007 162.09C206.38 163.079 210.301 162.214 210.766 160.158C211.231 158.103 208.062 155.635 203.689 154.646C199.316 153.657 195.395 154.522 194.93 156.577C194.466 158.633 197.634 161.101 202.007 162.09Z" fill="#86B1F2"/>
<path d="M221.143 99.2898C221.143 99.2898 237.71 95.2521 241.414 94.5865C245.118 93.8988 257.938 89.2843 258.426 89.0846C258.914 88.885 260.754 82.296 261.464 82.7619C262.196 83.2278 260.355 86.0896 261.264 86.4668C262.174 86.8439 269.892 83.383 269.937 84.0042C270.047 85.18 265.301 86.3115 265.434 86.8439C265.589 87.3764 270.269 85.2244 270.846 86.0231C271.422 86.8217 266.21 87.6648 266.122 88.1085C266.033 88.5522 271.134 87.9754 270.846 88.9293C270.691 89.4618 266.299 89.3508 266.477 89.9498C266.654 90.571 270.003 91.17 269.781 91.7468C269.559 92.3458 267.053 90.8594 265.323 91.3031C263.593 91.7468 262.107 91.17 259.579 92.6786C257.028 94.165 248.667 100.488 242.723 101.797C236.779 103.106 223.649 106.012 223.649 106.012L221.143 99.2898Z" fill="#F7A491"/>
<path d="M217.129 96.7376C217.683 96.4714 219.413 96.427 221.454 96.4492C222.208 96.4492 223.272 96.4714 224.071 96.427C227.065 96.3382 229.904 96.4714 229.904 96.4714C229.904 96.4714 231.412 103.748 230.148 105.612C230.148 105.612 218.437 107.276 218.726 108.096L217.129 96.7376Z" fill="#50BFA5"/>
<path d="M176.497 96.7816L177.517 95.4949C177.517 95.4949 178.138 94.5187 179.092 94.43C180.045 94.3413 180.001 93.1433 179.003 93.3207C178.005 93.4982 177.384 93.7201 177.384 93.7201C177.384 93.7201 179.38 92.6996 179.402 92.5664C179.602 91.8121 178.493 91.5237 177.029 92.633C175.543 93.7423 176.497 96.7816 176.497 96.7816Z" fill="#F7A491"/>
<path d="M41.1376 135.096C40.4944 135.451 40.0508 135.762 39.8512 135.917C39.8512 135.895 39.8734 135.873 39.8734 135.851C40.0952 135.629 40.8049 134.852 40.8271 134.852C41.7808 134.12 41.2706 133.344 40.3835 133.832C39.4963 134.32 38.964 134.741 38.964 134.741C38.964 134.741 40.5166 133.233 40.4944 132.989C40.4722 132.212 39.3189 132.301 38.2765 133.81C37.3671 135.119 38.6979 137.426 39.0971 137.98C39.4741 138.779 40.1839 139.134 40.1839 139.134L40.4278 137.626C40.4278 137.626 40.7162 136.494 41.559 136.117C42.4461 135.74 42.0247 134.631 41.1376 135.096Z" fill="#F7A491"/>
<path d="M180.156 92.167C180.156 92.167 182.507 90.2813 182.884 91.08C183.261 91.8786 183.106 93.6313 182.751 93.4981C182.396 93.365 182.441 92.1449 181.443 92.4554C181.154 92.5442 179.757 92.9879 180.156 92.167Z" fill="#F7A491"/>
<path d="M124.597 95.5844L111.844 87.8196C110.558 87.0431 110.136 85.3348 110.935 84.0481L118.697 71.2917C119.474 70.0049 121.181 69.5834 122.468 70.3821L135.221 78.1469C136.507 78.9233 136.929 80.6316 136.13 81.9183L128.367 94.6748C127.569 95.9615 125.883 96.383 124.597 95.5844Z" fill="#96D9C9"/>
<path d="M131.317 85.1581C131.783 84.6701 131.628 83.7605 130.94 83.1393C127.88 80.4327 124.375 78.2807 120.605 76.7722C119.74 76.4172 118.853 76.7056 118.631 77.3711C116.857 82.6068 117.478 80.6324 116.701 83.6717C116.524 84.3817 116.923 85.0916 117.588 85.38C118.298 85.6684 119.141 85.3578 119.474 84.6701C119.651 84.2929 119.829 83.8936 120.006 83.5164C120.206 83.0727 120.782 82.9174 121.27 83.1615C122.579 83.827 123.821 84.5813 125.018 85.4244C125.462 85.735 125.595 86.3339 125.285 86.7111C125.041 87.0439 124.775 87.3766 124.531 87.7094C124.065 88.3306 124.198 89.1958 124.797 89.6839C125.351 90.1498 126.172 90.172 126.704 89.7061C127.259 89.1736 130.341 86.1786 131.317 85.1581Z" fill="white"/>
<path d="M121.425 78.791C121.58 78.9019 121.713 79.035 121.802 79.1903L122.223 78.4804L121.314 77.9258L120.893 78.6357C121.092 78.6579 121.27 78.7023 121.425 78.791Z" fill="#96D9C9"/>
<path d="M120.006 79.1463C120.116 78.991 120.25 78.8579 120.405 78.7692L119.695 78.3477L119.141 79.2572L119.85 79.6788C119.85 79.5013 119.895 79.3238 120.006 79.1463Z" fill="#96D9C9"/>
<path d="M120.338 80.5888C120.182 80.4779 120.049 80.3447 119.96 80.1895L119.539 80.8994L120.448 81.454L120.87 80.7441C120.692 80.7441 120.515 80.6775 120.338 80.5888Z" fill="#96D9C9"/>
<path d="M121.935 79.7012C121.935 79.8787 121.891 80.0561 121.78 80.2336C121.669 80.3889 121.536 80.522 121.381 80.6108L122.091 81.0323L122.645 80.1227L121.935 79.7012Z" fill="#96D9C9"/>
<path d="M120.893 80.3434C121.248 80.3434 121.536 80.0553 121.536 79.7C121.536 79.3447 121.248 79.0566 120.893 79.0566C120.538 79.0566 120.25 79.3447 120.25 79.7C120.25 80.0553 120.538 80.3434 120.893 80.3434Z" fill="#96D9C9"/>
<path d="M128.323 85.6685C129.07 85.6685 129.676 85.0626 129.676 84.3152C129.676 83.5678 129.07 82.9619 128.323 82.9619C127.575 82.9619 126.97 83.5678 126.97 84.3152C126.97 85.0626 127.575 85.6685 128.323 85.6685Z" fill="#96D9C9"/>
<path d="M136.596 36.5051C136.596 36.5051 137.062 33.8651 139.812 32.5783C142.252 31.4469 144.891 32.7114 146 35.1074C147.286 37.8806 146.51 42.2289 141.852 47.8417C134.555 47.7752 130.741 45.5566 129.454 42.7835C128.345 40.3875 129.077 37.5478 131.539 36.4164C134.289 35.1518 136.596 36.5051 136.596 36.5051Z" fill="#F48C7F"/>
<path d="M48.1463 24.6357L31.9334 32.3561C30.026 33.2657 27.7415 32.4449 26.8322 30.5369L22.4629 21.4188C21.5536 19.5109 22.3742 17.2258 24.2816 16.3163L40.4945 8.59583C42.4019 7.68624 44.6863 8.50709 45.5957 10.415L49.9428 19.5109C50.8743 21.441 50.0537 23.7261 48.1463 24.6357Z" fill="#FAE0B2"/>
<path d="M25.3239 25.5674L21.8418 35.9057L29.5601 30.2041L25.3239 25.5674Z" fill="#FAE0B2"/>
<path d="M31.0461 21.5517L33.0866 20.509C33.0866 20.509 34.75 17.2921 34.4839 16.56C34.2399 15.8279 33.0866 14.5855 33.4193 14.2084C33.7298 13.8312 34.5283 13.2766 35.5041 13.92C36.2139 14.3859 37.0567 16.9593 37.3894 17.0037C37.589 17.0259 38.7866 16.4713 39.6516 16.0276C40.2283 15.7392 40.8936 15.8057 41.4038 16.1829C41.7586 16.4269 41.8695 16.8928 41.6921 17.2921L41.4259 17.8911L42.0248 18.2017C42.4684 18.4236 42.6458 18.9782 42.424 19.4219L42.2022 19.8878L42.5793 20.0431C43.0672 20.2428 43.289 20.8417 43.0228 21.3298L42.801 21.707L42.8898 21.7735C43.2668 22.0397 43.3777 22.5722 43.1337 22.9715L42.9119 23.3487L37.4559 26.1218C36.9458 26.388 36.3913 26.5433 35.8146 26.5655L33.7298 27.2311C33.508 27.2976 33.2641 27.2089 33.1532 26.987L30.8022 22.1729C30.7135 21.951 30.8022 21.6848 31.0461 21.5517Z" fill="white"/>
<path d="M165.14 46.9093C177.383 44.1362 188.717 47.9742 190.425 55.495C191.29 59.2665 189.56 63.2376 186.122 66.6097L193.618 76.5709L181.198 70.3147C178.359 71.9785 175.032 73.3097 171.351 74.1527C159.108 76.9258 147.774 73.0878 146.066 65.567C144.336 58.0685 152.875 49.7047 165.14 46.9093Z" fill="#FAE0B2"/>
<path d="M176.917 59.9987C176.74 64.3692 173.058 67.7857 168.667 67.6082C164.297 67.4308 160.882 63.748 161.059 59.3554C161.237 54.9849 164.918 51.5684 169.31 51.7459C173.701 51.9234 177.095 55.6061 176.917 59.9987Z" fill="#F7CC7F"/>
<path d="M164.719 60.7529C164.63 63.0824 166.449 65.0568 168.778 65.1678C171.107 65.2565 173.08 63.4373 173.191 61.1079L164.719 60.7529Z" fill="#EFEFEF"/>
<path d="M11.0186 81.9844L6.98203 82.783L7.46997 86.5989L3.5221 87.575L3.56646 91.2578L0.727539 92.4779L1.34855 93.92L5.14117 92.3005L5.09681 88.7952L9.19994 87.7747L8.712 84.0254L12.3715 83.2933L11.0186 81.9844Z" fill="#F48C7F"/>
<path d="M280.272 113.31L279.141 109.339L275.392 110.16L274.106 106.299L270.424 106.632L268.983 103.903L267.607 104.613L269.515 108.274L273.019 107.963L274.35 111.979L278.032 111.18L279.052 114.774L280.272 113.31Z" fill="#F7CC7F"/>
<path d="M11.6844 39.6774L9.42213 40.3652L7.91396 36.8599L4.4762 37.4589L2.92367 35.0186L1.68164 35.8172L3.76647 39.0784L7.02679 38.5016L8.60151 42.1622L11.9949 41.1195L11.6844 39.6774Z" fill="#50BFA5"/>
<path d="M95.4321 53.8986C94.6337 53.2552 92.7928 52.7228 91.8835 52.634C90.9741 52.5453 86.9597 52.5453 86.4496 53.5214C85.9395 54.4754 90.1313 57.2041 90.3531 58.3356C90.5749 59.467 87.9134 77.0599 87.1593 80.5651C86.7823 82.2955 85.3185 85.5346 83.9434 88.3743C85.9173 88.6849 88.3348 90.3044 89.8652 91.458C91.8169 87.1985 93.7909 82.4065 94.057 80.1658C94.545 75.64 96.2306 54.5419 95.4321 53.8986Z" fill="#F7A491"/>
<path d="M107.054 23.5261C105.679 23.4152 98.5595 28.8505 98.5595 28.8505L98.249 29.272C98.249 29.272 107.875 30.8916 108.34 30.6031C109.538 29.7823 108.163 23.6148 107.054 23.5261ZM98.5817 29.028C100.911 27.3419 105.701 25.2565 106.721 24.835C107.254 25.8112 107.742 28.3846 107.586 29.4495C106.455 29.3608 101.398 29.4717 98.5817 29.028Z" fill="#466EB6"/>
<path d="M96.63 19.0228C95.3879 15.7172 94.1903 15.8725 93.3253 15.9834C92.4603 16.0944 88.6233 18.8231 88.9782 20.9085C89.333 22.9939 97.0292 29.117 97.0292 29.117L97.5393 28.518C97.5615 28.518 97.872 22.3284 96.63 19.0228ZM90.1759 20.7089C89.9984 19.6662 92.6599 17.4477 93.5471 17.1593C93.7467 17.1371 93.9241 17.1149 94.0572 17.1593C94.2124 17.2036 94.8113 17.5142 95.521 19.4443C96.3194 21.5741 97.1401 26.477 97.1401 28.4293C94.0572 25.8558 90.3755 21.5963 90.1759 20.7089Z" fill="#466EB6"/>
<path d="M97.1175 30.4043L97.5389 30.5153C97.9603 30.6262 98.3817 30.4043 98.5148 29.9828L98.8697 28.7405C98.9806 28.3189 98.7588 27.8974 98.3374 27.7643L97.916 27.6534C97.4946 27.5425 97.0732 27.7643 96.9401 28.1858L96.5852 29.4282C96.4522 29.8497 96.6961 30.2712 97.1175 30.4043Z" fill="#466EB6"/>
<path d="M104.925 57.3589L78.3989 49.7716C76.9573 49.3723 76.0923 47.9081 76.4028 46.4439L81.1048 24.7246L115.66 34.597L107.853 56.405C107.542 57.3146 106.234 57.7361 104.925 57.3589Z" fill="#F47458"/>
<path d="M115.749 39.6768L78.2217 29.028L78.51 26.4989C78.6874 24.9903 80.1734 23.992 81.6373 24.4135L115.549 34.1971C116.747 34.5521 117.479 35.5504 117.124 36.3935L115.749 39.6768Z" fill="#FAE0B2"/>
<path d="M98.3894 29.2488L97.6855 29.0479L96.2244 34.1678L96.9282 34.3688L98.3894 29.2488Z" fill="#466EB6"/>
<path d="M97.8479 34.5956L96.9521 34.3398L91.4667 53.5611L92.3625 53.8169L97.8479 34.5956Z" fill="#466EB6"/>
<path d="M88.6011 53.8532L88.6899 52.7217C87.7805 52.4555 86.7381 52.0784 86.1836 51.8565L86.0284 50.9913C85.5626 49.8155 85.0303 50.6585 84.875 50.9247C84.875 50.9247 84.8307 52.4333 85.0081 52.6108C85.0081 52.6108 86.8046 54.4965 87.5587 55.2065C87.9358 55.5614 89.1334 56.5376 89.1334 56.5376L90.0871 55.2065L88.6011 53.8532Z" fill="#F7A491"/>
</svg>
