<svg width="25" height="25" viewBox="0 0 25 25" fill="none" xmlns="http://www.w3.org/2000/svg">
<rect width="24" height="24" transform="translate(0.5 0.5)" fill="#CDB3CD"/>
<path d="M23.5 20.5V22.5H16.5V20.5H18.96L12.5 5.11C12.31 4.64 12 4.26 11.56 3.96C11.12 3.66 10.64 3.5 10.11 3.5C9.4 3.5 8.78 3.77 8.26 4.29C7.74 4.81 7.5 5.42 7.5 6.14V9.5H8.5C10.71 9.5 12.5 11.29 12.5 13.5V22.5H8.5C9.11 21.66 9.5 20.63 9.5 19.5C9.5 16.74 7.26 14.5 4.5 14.5C3.79 14.5 3.11 14.65 2.5 14.92V9.5H5.5V6.14C5.5 5.3 5.73 4.5 6.13 3.82C6.54 3.12 7.09 2.56 7.8 2.13C8.5 1.71 9.27 1.5 10.11 1.5C11.05 1.5 11.9 1.76 12.66 2.27C13.42 2.78 14 3.47 14.37 4.31L21.16 20.5H23.5ZM7.5 19.5C7.5 21.16 6.16 22.5 4.5 22.5C2.84 22.5 1.5 21.16 1.5 19.5C1.5 17.84 2.84 16.5 4.5 16.5C6.16 16.5 7.5 17.84 7.5 19.5ZM5.5 19.5C5.5 18.95 5.05 18.5 4.5 18.5C3.95 18.5 3.5 18.95 3.5 19.5C3.5 20.05 3.95 20.5 4.5 20.5C5.05 20.5 5.5 20.05 5.5 19.5Z" fill="black"/>
</svg>
