<svg width="21" height="21" viewBox="0 0 21 21" fill="none" xmlns="http://www.w3.org/2000/svg">
<path d="M12.25 11.5039C12.25 11.1724 12.3817 10.8544 12.6161 10.62C12.8505 10.3856 13.1685 10.2539 13.5 10.2539C13.8315 10.2539 14.1495 10.3856 14.3839 10.62C14.6183 10.8544 14.75 11.1724 14.75 11.5039C14.75 11.8354 14.6183 12.1534 14.3839 12.3878C14.1495 12.6222 13.8315 12.7539 13.5 12.7539C13.1685 12.7539 12.8505 12.6222 12.6161 12.3878C12.3817 12.1534 12.25 11.8354 12.25 11.5039ZM20.5 10.5039V20.5039H0.5V10.5039C0.5 5.00391 5 0.503906 10.5 0.503906C16 0.503906 20.5 5.00391 20.5 10.5039ZM2.5 10.5039C2.5 14.9139 6.09 18.5039 10.5 18.5039C14.91 18.5039 18.5 14.9139 18.5 10.5039C18.5 9.71391 18.38 8.95391 18.17 8.24391C16.2367 8.69357 14.2133 8.55595 12.3587 7.84869C10.5041 7.14142 8.90289 5.8967 7.76 4.27391C6.78 6.66391 4.91 8.59391 2.55 9.64391C2.5 9.92391 2.5 10.2139 2.5 10.5039ZM7.5 12.7539C7.83152 12.7539 8.14946 12.6222 8.38388 12.3878C8.6183 12.1534 8.75 11.8354 8.75 11.5039C8.75 11.1724 8.6183 10.8544 8.38388 10.62C8.14946 10.3856 7.83152 10.2539 7.5 10.2539C7.16848 10.2539 6.85054 10.3856 6.61612 10.62C6.3817 10.8544 6.25 11.1724 6.25 11.5039C6.25 11.8354 6.3817 12.1534 6.61612 12.3878C6.85054 12.6222 7.16848 12.7539 7.5 12.7539Z" fill="black"/>
</svg>
