<svg width="31" height="30" viewBox="0 0 31 30" fill="none" xmlns="http://www.w3.org/2000/svg">
<path opacity="0.3" fill-rule="evenodd" clip-rule="evenodd" d="M10.6644 17.5448C10.2972 17.7389 10.2771 17.8107 10.2444 19.05C10.2122 20.2727 10.1778 20.4261 9.86177 20.7592C9.64794 20.9847 9.22428 21.1872 8.96519 21.1879C8.54977 21.189 8.17479 21.4785 8.10467 21.8522C8.05341 22.1256 8.20541 22.4804 8.44285 22.6418C8.7927 22.8796 9.60369 22.7898 10.2737 22.4394C10.6637 22.2352 11.2263 21.685 11.4525 21.2862C11.7523 20.7576 11.8312 20.3098 11.8312 19.1375C11.8312 18.2045 11.8209 18.0852 11.7225 17.8819C11.6435 17.7188 11.5521 17.6274 11.389 17.5484C11.1128 17.4147 10.9124 17.4137 10.6644 17.5448ZM13.1303 17.5593C12.7274 17.7903 12.7288 17.7814 12.7289 20.1052C12.729 22.4024 12.7301 22.4101 13.093 22.6525C13.469 22.9037 14.0155 22.7565 14.2203 22.3489C14.3035 22.1834 14.3126 21.961 14.3127 20.1052C14.3128 18.2005 14.3054 18.0313 14.2149 17.8612C14.0959 17.6377 13.7714 17.4414 13.5208 17.4414C13.4192 17.4414 13.2434 17.4945 13.1303 17.5593ZM15.6487 17.5495C15.4903 17.6278 15.396 17.7232 15.3187 17.8829C15.2208 18.085 15.2104 18.206 15.2104 19.1375C15.2104 20.3098 15.2893 20.7576 15.5891 21.2862C15.8153 21.685 16.3779 22.2352 16.7679 22.4394C17.4379 22.7898 18.2489 22.8796 18.5987 22.6418C18.8362 22.4804 18.9882 22.1256 18.9369 21.8522C18.8668 21.4785 18.4918 21.189 18.0764 21.1879C17.8173 21.1872 17.3937 20.9847 17.1798 20.7592C16.8638 20.4261 16.8294 20.2727 16.7972 19.05C16.7643 17.8043 16.7446 17.7354 16.366 17.5422C16.1085 17.4108 15.925 17.4127 15.6487 17.5495Z" fill="#2C2B46"/>
<path fill-rule="evenodd" clip-rule="evenodd" d="M2.6006 2.2571C2.44595 2.29454 2.11596 2.42596 1.86727 2.54919C1.0783 2.94016 0.480984 3.64007 0.15458 4.55603L0.0322976 4.89922L0.0162467 9.2092C-0.00186337 14.0596 -0.00893845 13.952 0.380877 14.7462C0.79065 15.5811 1.61722 16.2608 2.53856 16.5204C2.71058 16.5689 3.15715 16.6143 3.63414 16.6317L4.43933 16.6612L4.44012 15.5057C4.44102 14.1896 4.48764 13.8969 4.79677 13.2679C5.08168 12.6881 5.68792 12.0895 6.28729 11.7961C7.08588 11.4052 6.7656 11.4217 13.5208 11.4217C20.2759 11.4217 19.9556 11.4052 20.7542 11.7961C21.3536 12.0895 21.9598 12.6881 22.2447 13.2679C22.5539 13.8969 22.6005 14.1896 22.6014 15.5057L22.6022 16.6612L23.4074 16.6317C23.8844 16.6143 24.3309 16.5689 24.503 16.5204C25.4243 16.2608 26.2509 15.5811 26.6606 14.7462C27.0504 13.952 27.0434 14.0596 27.0253 9.2092L27.0092 4.89922L26.8869 4.55603C26.551 3.61325 25.9562 2.92855 25.1278 2.53108C24.8567 2.40098 24.509 2.26883 24.3552 2.2373C23.9157 2.14739 2.97526 2.16645 2.6006 2.2571ZM19.2557 5.32489C19.6328 5.60678 19.7379 6.01349 19.528 6.37759C19.3251 6.72966 19.1613 6.77981 18.2727 6.76229C17.6032 6.74909 17.4895 6.73393 17.367 6.64159C16.992 6.35906 16.9309 5.85525 17.2262 5.4799C17.4237 5.22884 17.5934 5.18835 18.3878 5.20287C19.0228 5.21443 19.1277 5.22916 19.2557 5.32489ZM23.0235 5.28212C23.1246 5.33286 23.2633 5.45757 23.3318 5.55921C23.5016 5.81122 23.478 6.28113 23.2852 6.48747C23.0462 6.74333 22.9249 6.77358 22.1374 6.77358C21.4622 6.77358 21.3891 6.76397 21.224 6.65373C20.7176 6.31545 20.7622 5.5647 21.3046 5.29622C21.6018 5.14912 22.7402 5.13977 23.0235 5.28212ZM7.45473 13.0609C6.93867 13.1623 6.38999 13.5986 6.1714 14.0814C6.05841 14.331 6.04848 14.4325 6.0328 15.4986L6.0159 16.647H13.5208H21.0256L21.0087 15.4986C20.993 14.4325 20.9831 14.331 20.8701 14.0814C20.7309 13.7738 20.3514 13.3801 20.0402 13.2203C19.9233 13.1604 19.7004 13.0871 19.5446 13.0576C19.1942 12.9911 7.79402 12.9943 7.45473 13.0609Z" fill="#2C2B46"/>
</svg>
