<svg width="40" height="40" viewBox="0 0 40 40" fill="none" xmlns="http://www.w3.org/2000/svg">
<rect width="40" height="40" rx="20" fill="white"/>
<path fill-rule="evenodd" clip-rule="evenodd" d="M22.1131 13.1727C23.0894 12.1964 24.6723 12.1964 25.6486 13.1727L26.8271 14.3512C27.8034 15.3275 27.8034 16.9104 26.8271 17.8867L18.1667 26.5471C18.0504 26.6635 17.9022 26.7428 17.7409 26.775L13.3214 27.6589C12.7383 27.7755 12.2242 27.2614 12.3409 26.6783L13.2247 22.2589C13.257 22.0976 13.3363 21.9494 13.4526 21.8331L22.1131 13.1727ZM24.4701 14.3512L25.6486 15.5297C25.974 15.8551 25.974 16.3828 25.6486 16.7082L24.4701 17.8867L22.1131 15.5297L23.2916 14.3512C23.617 14.0257 24.1447 14.0257 24.4701 14.3512ZM20.9346 16.7082L14.8096 22.8332L14.2203 25.7795L17.1666 25.1902L23.2916 19.0652L20.9346 16.7082Z" fill="#42004A"/>
</svg>
