<svg width="17" height="16" viewBox="0 0 17 16" fill="none" xmlns="http://www.w3.org/2000/svg">
<path d="M6.77463 2.56207C7.19076 1.36798 8.88383 1.36798 9.29996 2.56206L9.93193 4.3755C10.1155 4.90226 10.6084 5.25942 11.1674 5.27079L13.0918 5.3099C14.3589 5.33566 14.8821 6.94172 13.8722 7.70546L12.3383 8.86534C11.8928 9.20226 11.7045 9.78016 11.8664 10.3139L12.4238 12.1516C12.7908 13.3615 11.4211 14.3541 10.3808 13.6321L8.80083 12.5355C8.3419 12.217 7.73269 12.217 7.27376 12.5355L5.69382 13.6321C4.65349 14.3541 3.28377 13.3616 3.65079 12.1516L4.20817 10.3139C4.37007 9.78016 4.18182 9.20226 3.73628 8.86534L2.20244 7.70546C1.19247 6.94172 1.71565 5.33566 2.98281 5.3099L4.90723 5.27079C5.46622 5.25942 5.95908 4.90226 6.14265 4.3755L6.77463 2.56207Z" fill="#FFC554"/>
</svg>
