<svg width="44" height="45" viewBox="0 0 44 45" fill="none" xmlns="http://www.w3.org/2000/svg">
<rect y="0.5" width="44" height="44" rx="22" fill="#0054A5" fill-opacity="0.06"/>
<path fill-rule="evenodd" clip-rule="evenodd" d="M19.7615 16.6004C18.4505 15.1795 16.3618 15.1795 15.0522 16.6004C13.6978 18.0675 13.6978 20.4777 15.0522 21.9462L21.8393 29.3019L28.6277 21.9462C29.9807 20.4777 29.9807 18.0675 28.6277 16.6004C27.3167 15.1795 25.228 15.1795 23.9184 16.6004L22.5884 18.0417C22.4931 18.1451 22.3774 18.2276 22.2485 18.2841C22.1197 18.3406 21.9806 18.3697 21.8399 18.3697C21.6993 18.3697 21.5602 18.3406 21.4313 18.2841C21.3025 18.2276 21.1868 18.1451 21.0915 18.0417L19.7615 16.6004ZM13.5553 15.2202C15.6724 12.9266 19.1399 12.9266 21.2571 15.2202L21.8393 15.8499L22.4215 15.2202C24.5386 12.9266 28.0061 12.9266 30.1232 15.2202C32.197 17.4676 32.197 21.0789 30.1232 23.3264L23.0865 30.9535C22.9276 31.1258 22.7348 31.2633 22.5201 31.3574C22.3054 31.4514 22.0736 31.5 21.8393 31.5C21.6049 31.5 21.3731 31.4514 21.1584 31.3574C20.9438 31.2633 20.7509 31.1258 20.5921 30.9535L13.5553 23.3264C11.4816 21.0789 11.4816 17.4676 13.5553 15.2202Z" fill="#540B54"/>
</svg>
