<svg width="44" height="45" viewBox="0 0 44 45" fill="none" xmlns="http://www.w3.org/2000/svg">
<rect y="0.5" width="44" height="44" rx="22" fill="#EAEFF4"/>
<path d="M30.3616 26.2316C29.1316 26.2316 27.9416 26.0316 26.8316 25.6716C26.6577 25.6126 26.4707 25.6039 26.292 25.6463C26.1134 25.6888 25.9504 25.7807 25.8216 25.9116L24.2516 27.8816C21.4216 26.5316 18.7716 23.9816 17.3616 21.0516L19.3116 19.3916C19.5816 19.1116 19.6616 18.7216 19.5516 18.3716C19.1816 17.2616 18.9916 16.0716 18.9916 14.8416C18.9916 14.3016 18.5416 13.8516 18.0016 13.8516H14.5416C14.0016 13.8516 13.3516 14.0916 13.3516 14.8416C13.3516 24.1316 21.0816 31.8516 30.3616 31.8516C31.0716 31.8516 31.3516 31.2216 31.3516 30.6716V27.2216C31.3516 26.6816 30.9016 26.2316 30.3616 26.2316Z" fill="#540B54"/>
</svg>
