<svg width="22" height="22" viewBox="0 0 22 22" fill="none" xmlns="http://www.w3.org/2000/svg">
<path d="M20.8061 7.96863L14.3698 7.03322L11.4926 1.20026C11.414 1.04055 11.2847 0.911271 11.125 0.832687C10.7245 0.634959 10.2378 0.799732 10.0375 1.20026L7.16035 7.03322L0.724065 7.96863C0.546617 7.99398 0.384378 8.07763 0.260165 8.20438C0.109998 8.35872 0.0272487 8.56637 0.0301006 8.7817C0.0329526 8.99702 0.121172 9.20241 0.275375 9.35272L4.93211 13.8928L3.83194 20.3038C3.80614 20.4529 3.82264 20.6063 3.87957 20.7465C3.93651 20.8868 4.0316 21.0082 4.15405 21.0972C4.27651 21.1861 4.42144 21.239 4.5724 21.2497C4.72337 21.2605 4.87433 21.2287 5.00816 21.1581L10.7651 18.1313L16.522 21.1581C16.6792 21.2417 16.8617 21.2696 17.0366 21.2392C17.4777 21.1631 17.7743 20.7449 17.6982 20.3038L16.598 13.8928L21.2548 9.35272C21.3815 9.22851 21.4652 9.06627 21.4905 8.88882C21.559 8.4452 21.2497 8.03454 20.8061 7.96863ZM14.6385 13.254L15.5536 18.5851L10.7651 16.0704L5.97652 18.5876L6.89165 13.2566L3.01821 9.47947L8.37207 8.70123L10.7651 3.85184L13.1581 8.70123L18.5119 9.47947L14.6385 13.254Z" fill="#42004A"/>
</svg>
