<svg width="23" height="23" viewBox="0 0 23 23" fill="none" xmlns="http://www.w3.org/2000/svg">
<path d="M7.66644 8.43311H9.19977H7.66644ZM13.7998 14.5664H15.3331H13.7998ZM15.3331 7.66644L7.66644 15.3331L15.3331 7.66644ZM10.428 1.21111L8.69684 2.93917C8.41312 3.22339 8.02816 3.38333 7.62657 3.38384H4.90031C4.49852 3.38384 4.11319 3.54345 3.82909 3.82755C3.54498 4.11166 3.38537 4.49699 3.38537 4.89877V7.62504C3.38487 8.02663 3.22493 8.41159 2.94071 8.69531L1.21111 10.4295C0.927114 10.7136 0.767578 11.0988 0.767578 11.5005C0.767578 11.9022 0.927114 12.2875 1.21111 12.5716L2.94377 14.3027C3.0843 14.4433 3.19576 14.6101 3.27179 14.7938C3.34782 14.9774 3.38694 15.1742 3.38691 15.373V18.0992C3.38691 18.9364 4.06464 19.6142 4.90184 19.6142H7.62811C8.02984 19.6142 8.41471 19.7736 8.69837 20.0588L10.431 21.79C10.7151 22.074 11.1004 22.2335 11.5021 22.2335C11.9038 22.2335 12.289 22.074 12.5731 21.79L14.3042 20.0573C14.5882 19.7736 14.9731 19.6143 15.3745 19.6142H18.1008C18.5026 19.6142 18.8879 19.4546 19.172 19.1705C19.4561 18.8864 19.6157 18.501 19.6157 18.0992V15.373C19.6157 14.9712 19.7752 14.5864 20.0604 14.3027L21.7915 12.57C22.0755 12.2859 22.235 11.9007 22.235 11.499C22.235 11.0973 22.0755 10.7121 21.7915 10.428L20.0588 8.69684C19.7752 8.41287 19.6158 8.02794 19.6157 7.62657V4.90031C19.6157 4.49852 19.4561 4.11319 19.172 3.82909C18.8879 3.54498 18.5026 3.38537 18.1008 3.38537H15.3745C14.9729 3.38487 14.588 3.22493 14.3042 2.94071L12.57 1.21111C12.2859 0.927114 11.9007 0.767578 11.499 0.767578C11.0973 0.767578 10.7121 0.927114 10.428 1.21111V1.21111Z" stroke="#42004A" stroke-width="1.5"/>
</svg>
