<svg width="21" height="22" viewBox="0 0 21 22" fill="none" xmlns="http://www.w3.org/2000/svg">
<path d="M11.1307 0.499023L10.8499 0.750241L0.615483 11.0977L0 11.715L0.61638 12.361L9.13984 20.8844L9.78582 21.5008L10.4049 20.8844L20.7497 10.65L21 10.3683V0.499023H11.1307ZM11.888 2.29344H19.2056V9.61105L9.78493 18.9761L2.52294 11.7141L11.888 2.29344ZM16.514 4.08785C16.276 4.08785 16.0478 4.18237 15.8795 4.35063C15.7113 4.51889 15.6168 4.7471 15.6168 4.98505C15.6168 5.22301 15.7113 5.45121 15.8795 5.61947C16.0478 5.78773 16.276 5.88226 16.514 5.88226C16.7519 5.88226 16.9801 5.78773 17.1484 5.61947C17.3167 5.45121 17.4112 5.22301 17.4112 4.98505C17.4112 4.7471 17.3167 4.51889 17.1484 4.35063C16.9801 4.18237 16.7519 4.08785 16.514 4.08785Z" fill="#42004A"/>
</svg>
