<svg width="24" height="23" viewBox="0 0 24 23" fill="none" xmlns="http://www.w3.org/2000/svg">
<path d="M4.06592 6.0376C4.06592 6.41885 4.21737 6.78448 4.48695 7.05406C4.75654 7.32365 5.12217 7.4751 5.50342 7.4751C5.88467 7.4751 6.2503 7.32365 6.51988 7.05406C6.78947 6.78448 6.94092 6.41885 6.94092 6.0376C6.94092 5.65635 6.78947 5.29072 6.51988 5.02113C6.2503 4.75155 5.88467 4.6001 5.50342 4.6001C5.12217 4.6001 4.75654 4.75155 4.48695 5.02113C4.21737 5.29072 4.06592 5.65635 4.06592 6.0376Z" fill="#42004A"/>
<path d="M4.06592 11.5001C4.06592 11.8813 4.21737 12.247 4.48695 12.5166C4.75654 12.7861 5.12217 12.9376 5.50342 12.9376C5.88467 12.9376 6.2503 12.7861 6.51988 12.5166C6.78947 12.247 6.94092 11.8813 6.94092 11.5001C6.94092 11.1188 6.78947 10.7532 6.51988 10.4836C6.2503 10.214 5.88467 10.0626 5.50342 10.0626C5.12217 10.0626 4.75654 10.214 4.48695 10.4836C4.21737 10.7532 4.06592 11.1188 4.06592 11.5001Z" fill="#42004A"/>
<path d="M4.06592 16.9626C4.06592 17.3438 4.21737 17.7095 4.48695 17.9791C4.75654 18.2486 5.12217 18.4001 5.50342 18.4001C5.88467 18.4001 6.2503 18.2486 6.51988 17.9791C6.78947 17.7095 6.94092 17.3438 6.94092 16.9626C6.94092 16.5813 6.78947 16.2157 6.51988 15.9461C6.2503 15.6765 5.88467 15.5251 5.50342 15.5251C5.12217 15.5251 4.75654 15.6765 4.48695 15.9461C4.21737 16.2157 4.06592 16.5813 4.06592 16.9626Z" fill="#42004A"/>
<path fill-rule="evenodd" clip-rule="evenodd" d="M9.0959 6.0376C9.0959 5.64064 9.4177 5.31885 9.81465 5.31885H19.4472C19.8442 5.31885 20.166 5.64064 20.166 6.0376C20.166 6.43455 19.8442 6.75635 19.4472 6.75635H9.81465C9.4177 6.75635 9.0959 6.43455 9.0959 6.0376Z" fill="#42004A"/>
<path fill-rule="evenodd" clip-rule="evenodd" d="M9.0959 11.5001C9.0959 11.1031 9.4177 10.7813 9.81465 10.7813H19.4472C19.8442 10.7813 20.166 11.1031 20.166 11.5001C20.166 11.8971 19.8442 12.2188 19.4472 12.2188H9.81465C9.4177 12.2188 9.0959 11.8971 9.0959 11.5001Z" fill="#42004A"/>
<path fill-rule="evenodd" clip-rule="evenodd" d="M9.0959 16.9626C9.0959 16.5656 9.4177 16.2438 9.81465 16.2438H19.4472C19.8442 16.2438 20.166 16.5656 20.166 16.9626C20.166 17.3596 19.8442 17.6813 19.4472 17.6813H9.81465C9.4177 17.6813 9.0959 17.3596 9.0959 16.9626Z" fill="#42004A"/>
</svg>
