<svg width="24" height="24" viewBox="0 0 24 24" fill="none" xmlns="http://www.w3.org/2000/svg">
<path fill-rule="evenodd" clip-rule="evenodd" d="M16.7119 13.8056C17.5404 12.7721 18.0347 11.4639 18.0347 10.0348C18.0347 6.70186 15.3328 4 11.9999 4C8.66695 4 5.96509 6.70186 5.96509 10.0348C5.96509 11.4637 6.45924 12.7718 7.28762 13.8053L7.29357 13.8127C7.46896 14.0312 7.63133 14.2613 7.80002 14.4849C8.093 14.8734 8.50616 15.4189 8.98619 16.0462C9.88073 17.2153 10.9982 18.6565 12.0006 19.8938C13.0061 18.6539 14.1261 17.2104 15.0224 16.0398C15.5033 15.4117 15.9171 14.8657 16.2105 14.4769C16.3784 14.2545 16.5376 14.023 16.7119 13.8056ZM18.2753 15.0589C18.2753 15.0589 18.2736 15.0611 18.2724 15.0627C18.2212 15.1312 17.7509 15.7595 17.0695 16.6544C16.0586 17.9819 14.583 19.8961 13.3214 21.4393C12.6312 22.2834 11.3688 22.2831 10.6791 21.4386C8.5227 18.7985 5.73385 15.0646 5.73385 15.0646L5.72735 15.0565C4.62466 13.681 3.96509 11.9349 3.96509 10.0348C3.96509 5.5973 7.56238 2 11.9999 2C16.4374 2 20.0347 5.5973 20.0347 10.0348C20.0347 11.217 19.7793 12.3396 19.3208 13.3505C19.0434 13.962 18.6916 14.5326 18.277 15.0507L18.2741 15.0543L18.2724 15.0565H18.277L18.2753 15.0589Z" fill="black"/>
<path fill-rule="evenodd" clip-rule="evenodd" d="M12 11C12.5523 11 13 10.5523 13 10C13 9.44771 12.5523 9 12 9C11.4477 9 11 9.44771 11 10C11 10.5523 11.4477 11 12 11ZM15 10C15 11.6569 13.6569 13 12 13C10.3431 13 9 11.6569 9 10C9 8.34315 10.3431 7 12 7C13.6569 7 15 8.34315 15 10Z" fill="black"/>
</svg>
