<svg width="25" height="24" viewBox="0 0 25 24" fill="none" xmlns="http://www.w3.org/2000/svg">
<path d="M15 10.9694C16.9733 10.7235 18.5003 9.04026 18.5003 7.00034C18.5003 4.96043 16.9733 3.27716 15 3.03125C15.9337 4.08899 16.5003 5.4785 16.5003 7.00034C16.5003 8.52218 15.9337 9.91169 15 10.9694Z" fill="black"/>
<path d="M20.5 19.9998C20.5 20.5521 20.9477 20.9998 21.5 20.9998C22.0523 20.9998 22.5 20.5521 22.5 19.9998V17.9998C22.5 15.3397 20.4227 13.1648 17.8018 13.0088C18.8539 13.9405 19.6587 15.1452 20.1055 16.5118C20.3565 16.9504 20.5 17.4583 20.5 17.9998V19.9998Z" fill="black"/>
<path fill-rule="evenodd" clip-rule="evenodd" d="M7.5 15C5.84315 15 4.5 16.3431 4.5 18V20C4.5 20.5523 4.05228 21 3.5 21C2.94772 21 2.5 20.5523 2.5 20V18C2.5 15.2386 4.73858 13 7.5 13H13.5C16.2614 13 18.5 15.2386 18.5 18V20C18.5 20.5523 18.0523 21 17.5 21C16.9477 21 16.5 20.5523 16.5 20V18C16.5 16.3431 15.1569 15 13.5 15H7.5Z" fill="black"/>
<path fill-rule="evenodd" clip-rule="evenodd" d="M10.5 5C9.39543 5 8.5 5.89543 8.5 7C8.5 8.10457 9.39543 9 10.5 9C11.6046 9 12.5 8.10457 12.5 7C12.5 5.89543 11.6046 5 10.5 5ZM6.5 7C6.5 4.79086 8.29086 3 10.5 3C12.7091 3 14.5 4.79086 14.5 7C14.5 9.20914 12.7091 11 10.5 11C8.29086 11 6.5 9.20914 6.5 7Z" fill="black"/>
</svg>
