<svg width="24" height="24" viewBox="0 0 24 24" fill="none" xmlns="http://www.w3.org/2000/svg">
<path d="M2 2H22V22H2V2ZM19.5 20H20V4H4V20H4.5C4.5 18.6739 5.02678 17.4021 5.96447 16.4645C6.90215 15.5268 8.17392 15 9.5 15H14.5C15.8261 15 17.0979 15.5268 18.0355 16.4645C18.9732 17.4021 19.5 18.6739 19.5 20ZM12 7C11.337 7 10.7011 7.26339 10.2322 7.73223C9.76339 8.20107 9.5 8.83696 9.5 9.5C9.5 10.163 9.76339 10.7989 10.2322 11.2678C10.7011 11.7366 11.337 12 12 12C12.663 12 13.2989 11.7366 13.7678 11.2678C14.2366 10.7989 14.5 10.163 14.5 9.5C14.5 8.83696 14.2366 8.20107 13.7678 7.73223C13.2989 7.26339 12.663 7 12 7ZM7.5 9.5C7.5 8.30653 7.97411 7.16193 8.81802 6.31802C9.66193 5.47411 10.8065 5 12 5C13.1935 5 14.3381 5.47411 15.182 6.31802C16.0259 7.16193 16.5 8.30653 16.5 9.5C16.5 10.6935 16.0259 11.8381 15.182 12.682C14.3381 13.5259 13.1935 14 12 14C10.8065 14 9.66193 13.5259 8.81802 12.682C7.97411 11.8381 7.5 10.6935 7.5 9.5ZM9.5 17C8.70435 17 7.94129 17.3161 7.37868 17.8787C6.81607 18.4413 6.5 19.2044 6.5 20H17.5C17.5 19.2044 17.1839 18.4413 16.6213 17.8787C16.0587 17.3161 15.2956 17 14.5 17H9.5Z" fill="white"/>
</svg>
