<svg width="24" height="24" viewBox="0 0 24 24" fill="none" xmlns="http://www.w3.org/2000/svg">
<path d="M7 3V1H9V3H15V1H17V3H21C21.2652 3 21.5196 3.10536 21.7071 3.29289C21.8946 3.48043 22 3.73478 22 4V9H20V5H17V7H15V5H9V7H7V5H4V19H10V21H3C2.73478 21 2.48043 20.8946 2.29289 20.7071C2.10536 20.5196 2 20.2652 2 20V4C2 3.73478 2.10536 3.48043 2.29289 3.29289C2.48043 3.10536 2.73478 3 3 3H7ZM17 12C15.9391 12 14.9217 12.4214 14.1716 13.1716C13.4214 13.9217 13 14.9391 13 16C13 17.0609 13.4214 18.0783 14.1716 18.8284C14.9217 19.5786 15.9391 20 17 20C18.0609 20 19.0783 19.5786 19.8284 18.8284C20.5786 18.0783 21 17.0609 21 16C21 14.9391 20.5786 13.9217 19.8284 13.1716C19.0783 12.4214 18.0609 12 17 12ZM11 16C11 15.2121 11.1552 14.4319 11.4567 13.7039C11.7583 12.9759 12.2002 12.3145 12.7574 11.7574C13.3145 11.2002 13.9759 10.7583 14.7039 10.4567C15.4319 10.1552 16.2121 10 17 10C17.7879 10 18.5681 10.1552 19.2961 10.4567C20.0241 10.7583 20.6855 11.2002 21.2426 11.7574C21.7998 12.3145 22.2417 12.9759 22.5433 13.7039C22.8448 14.4319 23 15.2121 23 16C23 17.5913 22.3679 19.1174 21.2426 20.2426C20.1174 21.3679 18.5913 22 17 22C15.4087 22 13.8826 21.3679 12.7574 20.2426C11.6321 19.1174 11 17.5913 11 16ZM16 13V16.414L18.293 18.707L19.707 17.293L18 15.586V13H16Z" fill="black"/>
</svg>
