<svg width="24" height="24" viewBox="0 0 24 24" fill="none" xmlns="http://www.w3.org/2000/svg">
<path fill-rule="evenodd" clip-rule="evenodd" d="M14.7866 16.0605C13.4539 17.0709 11.7873 17.5377 10.1237 17.3665C8.46011 17.1953 6.9235 16.399 5.82447 15.1384C4.72544 13.8779 4.14593 12.2471 4.20308 10.5757C4.26022 8.90424 4.94975 7.31683 6.13232 6.13427C7.31488 4.95171 8.90228 4.26217 10.5737 4.20503C12.2451 4.14788 13.8759 4.72739 15.1365 5.82642C16.3971 6.92546 17.1934 8.46206 17.3646 10.1257C17.5357 11.7893 17.069 13.4559 16.0586 14.7885L19.535 18.2649C19.6234 18.3473 19.6943 18.4467 19.7435 18.5571C19.7927 18.6675 19.8192 18.7867 19.8213 18.9075C19.8234 19.0284 19.8012 19.1484 19.7559 19.2605C19.7107 19.3725 19.6433 19.4743 19.5578 19.5598C19.4724 19.6452 19.3706 19.7126 19.2585 19.7579C19.1464 19.8032 19.0264 19.8254 18.9056 19.8232C18.7847 19.8211 18.6655 19.7947 18.5551 19.7455C18.4447 19.6963 18.3454 19.6254 18.263 19.5369L14.7866 16.0605ZM15.599 10.8009C15.599 12.074 15.0933 13.2949 14.1931 14.1951C13.2929 15.0952 12.072 15.6009 10.799 15.6009C9.52595 15.6009 8.30505 15.0952 7.40487 14.1951C6.5047 13.2949 5.99899 12.074 5.99899 10.8009C5.99899 9.5279 6.5047 8.307 7.40487 7.40683C8.30505 6.50665 9.52595 6.00094 10.799 6.00094C12.072 6.00094 13.2929 6.50665 14.1931 7.40683C15.0933 8.307 15.599 9.5279 15.599 10.8009Z" fill="#565656"/>
</svg>
