<svg width="24" height="24" viewBox="0 0 24 24" fill="none" xmlns="http://www.w3.org/2000/svg">
<path d="M9.24995 22L8.84995 18.8C8.63329 18.7167 8.42928 18.6167 8.23795 18.5C8.04662 18.3833 7.85895 18.2583 7.67495 18.125L4.69995 19.375L1.94995 14.625L4.52495 12.675C4.50828 12.5583 4.49995 12.446 4.49995 12.338V11.663C4.49995 11.5543 4.50828 11.4417 4.52495 11.325L1.94995 9.375L4.69995 4.625L7.67495 5.875C7.85828 5.74167 8.04995 5.61667 8.24995 5.5C8.44995 5.38333 8.64995 5.28333 8.84995 5.2L9.24995 2H14.75L15.15 5.2C15.3666 5.28333 15.571 5.38333 15.763 5.5C15.955 5.61667 16.1423 5.74167 16.325 5.875L19.2999 4.625L22.0499 9.375L19.475 11.325C19.4916 11.4417 19.5 11.5543 19.5 11.663V12.337C19.5 12.4457 19.4833 12.5583 19.45 12.675L22.025 14.625L19.275 19.375L16.325 18.125C16.1416 18.2583 15.95 18.3833 15.75 18.5C15.55 18.6167 15.35 18.7167 15.15 18.8L14.75 22H9.24995ZM11 20H12.975L13.325 17.35C13.8416 17.2167 14.321 17.021 14.763 16.763C15.205 16.505 15.609 16.1923 15.975 15.825L18.45 16.85L19.4249 15.15L17.275 13.525C17.3583 13.2917 17.4166 13.046 17.45 12.788C17.4833 12.53 17.5 12.2673 17.5 12C17.5 11.7327 17.4833 11.4703 17.45 11.213C17.4166 10.9557 17.3583 10.7097 17.275 10.475L19.4249 8.85L18.45 7.15L15.975 8.2C15.6083 7.81667 15.2043 7.496 14.763 7.238C14.3216 6.98 13.8423 6.784 13.325 6.65L13 4H11.025L10.675 6.65C10.1583 6.78333 9.67928 6.97933 9.23795 7.238C8.79662 7.49667 8.39228 7.809 8.02495 8.175L5.54995 7.15L4.57495 8.85L6.72495 10.45C6.64162 10.7 6.58328 10.95 6.54995 11.2C6.51662 11.45 6.49995 11.7167 6.49995 12C6.49995 12.2667 6.51662 12.525 6.54995 12.775C6.58328 13.025 6.64162 13.275 6.72495 13.525L4.57495 15.15L5.54995 16.85L8.02495 15.8C8.39162 16.1833 8.79595 16.5043 9.23795 16.763C9.67995 17.0217 10.159 17.2173 10.675 17.35L11 20ZM12.05 15.5C13.0166 15.5 13.8416 15.1583 14.525 14.475C15.2083 13.7917 15.55 12.9667 15.55 12C15.55 11.0333 15.2083 10.2083 14.525 9.525C13.8416 8.84167 13.0166 8.5 12.05 8.5C11.0666 8.5 10.2373 8.84167 9.56195 9.525C8.88662 10.2083 8.54928 11.0333 8.54995 12C8.55062 12.9667 8.88828 13.7917 9.56295 14.475C10.2376 15.1583 11.0666 15.5 12.05 15.5Z" fill="black"/>
</svg>
