<svg width="46" height="19" viewBox="0 0 46 19" fill="none" xmlns="http://www.w3.org/2000/svg">
<path d="M45.4579 9.77346C45.4579 6.54088 43.8921 3.99018 40.8995 3.99018C37.8942 3.99018 36.0759 6.54097 36.0759 9.74824C36.0759 13.549 38.2226 15.4683 41.3035 15.4683C42.8062 15.4683 43.9427 15.1274 44.8013 14.6476V12.1221C43.9427 12.5515 42.9578 12.8167 41.7077 12.8167C40.4828 12.8167 39.3969 12.3873 39.258 10.8973H45.4327C45.4327 10.733 45.4579 10.0765 45.4579 9.77346ZM39.2201 8.57388C39.2201 7.14702 40.0914 6.55349 40.8869 6.55349C41.6571 6.55349 42.478 7.14702 42.478 8.57388H39.2201ZM31.2019 3.99018C29.9643 3.99018 29.1688 4.57101 28.7269 4.97516L28.5627 4.19225H25.7848V18.9155L28.9415 18.2463L28.9542 14.6728C29.4088 15.0011 30.078 15.4683 31.1892 15.4683C33.4495 15.4683 35.5077 13.65 35.5077 9.64721C35.4951 5.98527 33.4116 3.99018 31.2018 3.99018M30.4441 12.6903C29.6991 12.6903 29.2571 12.4252 28.9541 12.0969L28.9414 7.41213C29.2698 7.04598 29.7243 6.79348 30.4441 6.79348C31.5932 6.79348 32.3887 8.08139 32.3887 9.73555C32.3887 11.4276 31.6058 12.6903 30.4441 12.6903ZM21.441 3.24518L24.6104 2.56331V0L21.441 0.669262V3.24518ZM21.441 4.20486H24.6104V15.2536H21.441V4.20486ZM18.0443 5.13923L17.8422 4.20486H15.1148V15.2536H18.2716V7.76576C19.0165 6.79348 20.2793 6.97025 20.6708 7.10911V4.20486C20.2667 4.0533 18.7893 3.7755 18.0443 5.13923ZM11.7306 1.46478L8.64962 2.12134L8.63701 12.2357C8.63701 14.1047 10.0387 15.4809 11.9075 15.4809C12.9429 15.4809 13.7005 15.2915 14.1172 15.0642V12.5009C13.7132 12.6651 11.718 13.2459 11.718 11.3771V6.89442H14.1172V4.20486H11.718L11.7306 1.46478ZM3.19466 7.41213C3.19466 6.91973 3.59872 6.73026 4.26807 6.73026C5.22766 6.73026 6.43985 7.02077 7.39952 7.53847V4.57101C6.35151 4.15434 5.31609 3.99018 4.26807 3.99018C1.70467 3.99018 0 5.3287 0 7.56378C0 11.0488 4.7983 10.4932 4.7983 11.9959C4.7983 12.5767 4.29329 12.7661 3.58612 12.7661C2.5381 12.7661 1.19957 12.3368 0.13886 11.7559V14.7612C1.31322 15.2663 2.50019 15.4809 3.58612 15.4809C6.21256 15.4809 8.01827 14.1804 8.01827 11.9201C8.00566 8.15721 3.19466 8.82639 3.19466 7.41213Z" fill="#635BFF"/>
</svg>
