<svg width="25" height="24" viewBox="0 0 25 24" fill="none" xmlns="http://www.w3.org/2000/svg">
<path d="M12.5 21C10.4 21 8.54167 20.3627 6.925 19.088C5.30833 17.8133 4.25833 16.184 3.775 14.2C3.70833 13.95 3.75833 13.721 3.925 13.513C4.09167 13.305 4.31667 13.184 4.6 13.15C4.86667 13.1167 5.10833 13.1667 5.325 13.3C5.54167 13.4333 5.69167 13.6333 5.775 13.9C6.175 15.4 7 16.625 8.25 17.575C9.5 18.525 10.9167 19 12.5 19C14.45 19 16.1043 18.321 17.463 16.963C18.8217 15.605 19.5007 13.9507 19.5 12C19.4993 10.0493 18.8203 8.39533 17.463 7.038C16.1057 5.68067 14.4513 5.00133 12.5 5C11.35 5 10.275 5.26667 9.275 5.8C8.275 6.33333 7.43333 7.06667 6.75 8H8.5C8.78333 8 9.021 8.096 9.213 8.288C9.405 8.48 9.50067 8.71733 9.5 9C9.49933 9.28267 9.40333 9.52033 9.212 9.713C9.02067 9.90567 8.78333 10.0013 8.5 10H4.5C4.21667 10 3.97933 9.904 3.788 9.712C3.59667 9.52 3.50067 9.28267 3.5 9V5C3.5 4.71667 3.596 4.47933 3.788 4.288C3.98 4.09667 4.21733 4.00067 4.5 4C4.78267 3.99933 5.02033 4.09533 5.213 4.288C5.40567 4.48067 5.50133 4.718 5.5 5V6.35C6.35 5.28333 7.38767 4.45833 8.613 3.875C9.83833 3.29167 11.134 3 12.5 3C13.75 3 14.921 3.23767 16.013 3.713C17.105 4.18833 18.055 4.82967 18.863 5.637C19.671 6.44433 20.3127 7.39433 20.788 8.487C21.2633 9.57967 21.5007 10.7507 21.5 12C21.4993 13.2493 21.262 14.4203 20.788 15.513C20.314 16.6057 19.6723 17.5557 18.863 18.363C18.0537 19.1703 17.1037 19.812 16.013 20.288C14.9223 20.764 13.7513 21.0013 12.5 21ZM13.5 11.6L16 14.1C16.1833 14.2833 16.275 14.5167 16.275 14.8C16.275 15.0833 16.1833 15.3167 16 15.5C15.8167 15.6833 15.5833 15.775 15.3 15.775C15.0167 15.775 14.7833 15.6833 14.6 15.5L11.8 12.7C11.7 12.6 11.625 12.4877 11.575 12.363C11.525 12.2383 11.5 12.109 11.5 11.975V8C11.5 7.71667 11.596 7.47933 11.788 7.288C11.98 7.09667 12.2173 7.00067 12.5 7C12.7827 6.99933 13.0203 7.09533 13.213 7.288C13.4057 7.48067 13.5013 7.718 13.5 8V11.6Z" fill="black"/>
</svg>
